<?xml version="1.0" encoding="UTF-8" standalone="no"?>
<!-- Created with Inkscape (http://www.inkscape.org/) -->

<svg
   xmlns:dc="http://purl.org/dc/elements/1.1/"
   xmlns:cc="http://creativecommons.org/ns#"
   xmlns:rdf="http://www.w3.org/1999/02/22-rdf-syntax-ns#"
   xmlns:svg="http://www.w3.org/2000/svg"
   xmlns="http://www.w3.org/2000/svg"
   xmlns:sodipodi="http://sodipodi.sourceforge.net/DTD/sodipodi-0.dtd"
   xmlns:inkscape="http://www.inkscape.org/namespaces/inkscape"
   width="500"
   height="500"
   id="svg2"
   version="1.1"
   inkscape:version="0.48.1 r9760"
   sodipodi:docname="nullcover.svg"
   inkscape:export-filename="/home/ragecryx/Projects/Enlightenment/Entasy/bin/nullcover.png"
   inkscape:export-xdpi="36"
   inkscape:export-ydpi="36">
  <defs
     id="defs4" />
  <sodipodi:namedview
     id="base"
     pagecolor="#ffffff"
     bordercolor="#666666"
     borderopacity="1.0"
     inkscape:pageopacity="0.0"
     inkscape:pageshadow="2"
     inkscape:zoom="0.7"
     inkscape:cx="84.25283"
     inkscape:cy="283.61549"
     inkscape:document-units="px"
     inkscape:current-layer="layer1"
     showgrid="false"
     inkscape:window-width="1086"
     inkscape:window-height="621"
     inkscape:window-x="228"
     inkscape:window-y="129"
     inkscape:window-maximized="0" />
  <metadata
     id="metadata7">
    <rdf:RDF>
      <cc:Work
         rdf:about="">
        <dc:format>image/svg+xml</dc:format>
        <dc:type
           rdf:resource="http://purl.org/dc/dcmitype/StillImage" />
        <dc:title></dc:title>
      </cc:Work>
    </rdf:RDF>
  </metadata>
  <g
     inkscape:label="Layer 1"
     inkscape:groupmode="layer"
     id="layer1"
     transform="translate(0,-552.36218)">
    <rect
       style="fill:#e6e6e6"
       id="rect2985"
       width="30"
       height="502.85715"
       x="0"
       y="-1.4285717"
       transform="translate(0,552.36218)" />
    <path
       style="fill:#e6e6e6"
       d="M 265.4375 34.84375 C 144.72383 34.84375 46.84375 132.72383 46.84375 253.4375 C 46.84375 374.15117 144.72383 472 265.4375 472 C 386.15117 472 484 374.15117 484 253.4375 C 484 132.72383 386.15117 34.84375 265.4375 34.84375 z M 265.4375 232 C 277.27217 232 286.84375 241.60283 286.84375 253.4375 C 286.84375 265.27217 277.27217 274.84375 265.4375 274.84375 C 253.60283 274.84375 244 265.27217 244 253.4375 C 244 241.60283 253.60283 232 265.4375 232 z "
       transform="translate(0,552.36218)"
       id="path2987" />
  </g>
</svg>
